<svg xmlns="http://www.w3.org/2000/svg" width="32" height="32" fill="none" viewBox="0 0 32 32">
  <path fill="#FEFEFE" fill-rule="evenodd" stroke="#E30909" stroke-linecap="round" stroke-linejoin="round" stroke-width="2" d="M1 16a15 15 0 1 1 29.998.002A15 15 0 0 1 1 16Z" clip-rule="evenodd"/>
  <path fill="#FEFEFE" fill-rule="evenodd" d="M10.374 21.622 16 15.999ZM16 16l5.623-5.627Zm0 0 5.625 5.622Zm0 0-5.625-5.627Z" clip-rule="evenodd"/>
  <path fill="#E30909" d="M9.668 20.915a1 1 0 0 0 1.414 1.414l-1.414-1.414Zm7.038-4.208a1 1 0 1 0-1.414-1.415l1.414 1.415Zm-1.414-1.414a1 1 0 0 0 1.415 1.413l-1.415-1.413Zm7.037-4.213a1 1 0 0 0-1.415-1.414l1.415 1.413Zm-5.623 4.212a1 1 0 0 0-1.414 1.415l1.414-1.415Zm4.211 7.037a1 1 0 0 0 1.414-1.414l-1.414 1.414Zm-5.625-5.623a1 1 0 0 0 1.414-1.413l-1.414 1.413Zm-4.21-7.04a1 1 0 0 0-1.415 1.414l1.415-1.414Zm0 12.663 5.624-5.622-1.414-1.415-5.624 5.623 1.414 1.414Zm5.625-5.623 5.622-5.627-1.415-1.413-5.622 5.627 1.415 1.413Zm-1.415 0 5.625 5.623 1.414-1.414-5.625-5.623-1.414 1.415Zm1.414-1.413-5.624-5.627-1.415 1.414 5.625 5.626 1.414-1.413Z"/>
</svg>
